<svg xmlns="http://www.w3.org/2000/svg" width="99.9" height="93.3">
  <path fill="#484F59" d="M12.5 5.6h3v9.1h-3zM94.8 5.6h3v49h-3z"/>
  <path fill="#484F59" d="M99.9 61.5H26.5v-3h70.4v-2H26.5v-3h73.4zM99.9 8H10.4V0H100v8zM13.4 5H97V3H13.4v2z"/>
  <path fill="#484F59" d="M53.7 60h3v12.3h-3zM36.74906 71.59232l7.30158-12.29514 2.5794 1.5318-7.30158 12.29514zM63.65317 60.78512l2.5791-1.5324 7.30444 12.29371-2.5791 1.5324zM54.7 50.7H38.9v-7.9h15.8v7.9zm-12.8-3h9.8v-1.9h-9.8v1.9zM73 50.7H57.2V28.5H73v22.2zm-12.8-3H70V31.5h-9.8v16.2zM91.2 50.7H75.4V15.4h15.8v35.3zm-12.8-3h9.8V18.4h-9.8v29.3z"/>
  <g>
    <path fill="#484F59" d="M8.7 68.5H7.1c-2.8 0-7.1-2.3-7.1-5.7V37.5c0-3 2.3-6.2 5.1-7 5.7-1.7 18.6-1.8 18.7-1.8h25.3c3.4 0 5.6 4.2 5.7 7v2.7H25.1v-3h26.7c-.2-1.7-1.6-3.8-2.6-3.8H23.8c-2.4 0-13.2.3-17.8 1.7-1.6.5-3 2.5-3 4.2v25.3c0 1.2 2.3 2.6 4.1 2.7h1.6v3z"/>
    <path fill="none" d="M8.5 61.7H26v29H8.5zM25.7 22.2c0 4.5-3.7 8.2-8.2 8.2-4.5 0-8.2-3.7-8.2-8.2 0-4.5 3.7-8.2 8.2-8.2 4.6.1 8.2 3.7 8.2 8.2zM8.9 38.9v54M26.2 38.9v54M17.6 65.8v27.1"/>
    <path fill="#484F59" d="M17.6 30.9c-5.3 0-9.7-4.3-9.7-9.7s4.3-9.7 9.7-9.7c5.3 0 9.7 4.3 9.7 9.7s-4.4 9.7-9.7 9.7zm0-16.3c-3.7 0-6.7 3-6.7 6.7s3 6.7 6.7 6.7 6.7-3 6.7-6.7c-.1-3.7-3.1-6.7-6.7-6.7zM27.7 93.3H7.4V38.9h3v51.4h14.3V35.7h3z"/>
    <g>
      <path fill="#484F59" d="M16.1 65.8h3v27.1h-3z"/>
    </g>
  </g>
  <g>
    <path fill="#484F59" d="M32.9 14.5h27.7v3H32.9z"/>
  </g>
  <g>
    <path fill="#484F59" d="M32.9 21.2h27.7v3H32.9z"/>
  </g>
</svg>
