<svg xmlns="http://www.w3.org/2000/svg" width="101.5" height="99.5">
  <path fill="#484F59" d="M49.5 44.1h3v13.7h-3z"/>
  <path fill="#484F59" d="M38.89747 62.07272l10.9982-6.35127 1.5003 2.598-10.9982 6.35127z"/>
  <path fill="#484F59" d="M50.6655 58.3218l1.5-2.598 10.9982 6.35-1.5 2.598zM50.8 46c-12.7 0-23-10.3-23-23s10.3-23 23-23 23 10.3 23 23-10.3 23-23 23zm0-43c-11 0-20 9-20 20s9 20 20 20 20-9 20-20-8.9-20-20-20z"/>
  <path fill="#484F59" d="M66.9 38.6h-3v-6.7c0-1.5-1.3-3.4-2.7-3.8-7-2.1-14.4-2.1-21.5 0-1.4.4-2.7 2.2-2.7 3.8v5.9h-3v-5.9c0-2.9 2.2-5.8 4.8-6.7 7.6-2.3 15.6-2.3 23.2 0 2.7.8 4.9 3.8 4.9 6.7v6.7z"/>
  <path fill="#484F59" d="M50.5 25.3c-4.5 0-8.1-3.6-8.1-8.1s3.6-8.1 8.1-8.1 8.1 3.6 8.1 8.1c0 4.4-3.7 8.1-8.1 8.1zm0-15.2c-3.9 0-7.1 3.2-7.1 7.1 0 3.9 3.2 7.1 7.1 7.1 3.9 0 7.1-3.2 7.1-7.1 0-3.9-3.2-7.1-7.1-7.1z"/>
  <path fill="#484F59" d="M50.5 26.3c-5 0-9.1-4.1-9.1-9.1s4.1-9.1 9.1-9.1 9.1 4.1 9.1 9.1-4.1 9.1-9.1 9.1zm0-15.2c-3.4 0-6.1 2.7-6.1 6.1 0 3.4 2.7 6.1 6.1 6.1 3.4 0 6.1-2.7 6.1-6.1 0-3.4-2.8-6.1-6.1-6.1zM40.9 33.2h3v9.9h-3zM57.1 33.2h3v9.9h-3z"/>
  <g>
    <path fill="#484F59" d="M23 99.5c-12.7 0-23-10.3-23-23s10.3-23 23-23 23 10.3 23 23-10.3 23-23 23zm0-43c-11 0-20 9-20 20s9 20 20 20 20-9 20-20-9-20-20-20z"/>
    <path fill="#484F59" d="M39.1 92.1h-3v-6.7c0-1.5-1.3-3.4-2.7-3.8-7-2.1-14.4-2.1-21.5 0-1.4.4-2.7 2.2-2.7 3.8v5.9h-3v-5.9c0-2.9 2.2-5.8 4.8-6.7 7.6-2.3 15.6-2.3 23.2 0 2.7.8 4.9 3.8 4.9 6.7v6.7z"/>
    <path fill="#484F59" d="M22.6 78.8c-4.5 0-8.1-3.6-8.1-8.1s3.6-8.1 8.1-8.1 8.1 3.6 8.1 8.1c0 4.4-3.6 8.1-8.1 8.1zm0-15.2c-3.9 0-7.1 3.2-7.1 7.1 0 3.9 3.2 7.1 7.1 7.1 3.9 0 7.1-3.2 7.1-7.1 0-3.9-3.2-7.1-7.1-7.1z"/>
    <path fill="#484F59" d="M22.6 79.8c-5 0-9.1-4.1-9.1-9.1s4.1-9.1 9.1-9.1 9.1 4.1 9.1 9.1-4 9.1-9.1 9.1zm0-15.2c-3.4 0-6.1 2.7-6.1 6.1s2.7 6.1 6.1 6.1c3.4 0 6.1-2.7 6.1-6.1s-2.7-6.1-6.1-6.1zM13.1 86.7h3v9.9h-3zM29.2 86.7h3v9.9h-3z"/>
  </g>
  <g>
    <path fill="#484F59" d="M78.5 99.5c-12.7 0-23-10.3-23-23s10.3-23 23-23 23 10.3 23 23-10.3 23-23 23zm0-43c-11 0-20 9-20 20s9 20 20 20 20-9 20-20-9-20-20-20z"/>
    <path fill="#484F59" d="M94.6 92.1h-3v-6.7c0-1.5-1.3-3.4-2.7-3.8-7-2.1-14.4-2.1-21.5 0-1.4.4-2.7 2.2-2.7 3.8v5.9h-3v-5.9c0-2.9 2.2-5.8 4.8-6.7 7.6-2.3 15.6-2.3 23.2 0 2.7.8 4.9 3.8 4.9 6.7v6.7z"/>
    <path fill="#484F59" d="M78.1 78.8c-4.5 0-8.1-3.6-8.1-8.1s3.6-8.1 8.1-8.1 8.1 3.6 8.1 8.1c0 4.4-3.6 8.1-8.1 8.1zm0-15.2c-3.9 0-7.1 3.2-7.1 7.1 0 3.9 3.2 7.1 7.1 7.1 3.9 0 7.1-3.2 7.1-7.1 0-3.9-3.2-7.1-7.1-7.1z"/>
    <path fill="#484F59" d="M78.1 79.8c-5 0-9.1-4.1-9.1-9.1s4.1-9.1 9.1-9.1 9.1 4.1 9.1 9.1-4 9.1-9.1 9.1zm0-15.2c-3.4 0-6.1 2.7-6.1 6.1s2.7 6.1 6.1 6.1c3.4 0 6.1-2.7 6.1-6.1s-2.7-6.1-6.1-6.1zM68.6 86.7h3v9.9h-3zM84.7 86.7h3v9.9h-3z"/>
  </g>
</svg>
