<svg xmlns="http://www.w3.org/2000/svg" width="107.7" height="100.1">
  <path fill="#484F59" d="M31.6 53.9c-.5 0-.9-.2-1.2-.6L12.7 29c-.2-.3-.3-.7-.3-1.1s.3-.7.6-1c5.7-4.1 11.6-6 18.6-6 .8 0 1.5.7 1.5 1.5v30.1c0 .6-.4 1.2-1 1.4h-.5zM16 28.4l14.1 19.4V23.9c-5.2.2-9.7 1.7-14.1 4.5z"/>
  <path fill="#484F59" d="M31.6 84C14.2 84 0 69.8 0 52.4 0 42 4.6 33 13 26.9c.3-.2.7-.3 1.1-.3.4.1.7.3 1 .6l15 20.6V22.3h3v30.1c0 .6-.4 1.2-1 1.4-.6.2-1.3 0-1.7-.5L13.6 30.2C6.7 35.8 3 43.4 3 52.4 3 68.2 15.8 81 31.6 81s28.6-12.8 28.6-28.6h3C63.1 69.8 49 84 31.6 84z"/>
  <g>
    <path fill="#484F59" d="M60.2 63.2c-.2 0-.3 0-.5-.1l-28.6-9.3c-.6-.2-1-.8-1-1.4V22.3c0-.8.7-1.5 1.5-1.5 3.5 0 6.5.5 9.8 1.5 7.1 2.3 13.1 7 17 13.3l-2.5 1.6c-3.5-5.7-9-10-15.4-12-2.5-.8-4.8-1.2-7.3-1.4v27.4l26.1 8.5c1.1-4.1 1.3-8.5.5-12.7l2.9-.6c1 5.2.6 10.6-1 15.6-.1.4-.4.7-.7.9-.4.3-.6.3-.8.3z"/>
  </g>
  <g>
    <path fill="none" d="M68.8 11.8c0 5.7 4.6 10.3 10.3 10.3 5.7 0 10.3-4.6 10.3-10.3 0-5.7-4.6-10.3-10.3-10.3-5.7 0-10.3 4.6-10.3 10.3z"/>
    <path fill="#484F59" d="M79.1 23.6c-6.5 0-11.8-5.3-11.8-11.8C67.3 5.3 72.6 0 79.1 0 85.7 0 91 5.3 91 11.8c0 6.5-5.3 11.8-11.9 11.8zm0-20.6c-4.9 0-8.8 4-8.8 8.8 0 4.9 4 8.8 8.8 8.8 4.9 0 8.8-4 8.8-8.8C88 7 84 3 79.1 3z"/>
    <path fill="#484F59" d="M88.6 100.1h-19l-1.5-1.5v-60l-5.9 8.9-1.2.7H39.2l-1.5-1.5v-8.5l1.5-1.5h16.4l10.2-15.2 1.2-.7h26.3l1.2.6 13.1 18.1.1 1.6-9.5 16.5-2 .6-6-3.5v43.9l-1.6 1.5zm-17.5-3h16.1V30.8l2.7-.9L97.5 40l.1 1.7-6 10.5 4.8 2.7 8.3-14.4-12.2-16.7H67.7L57.6 39l-1.2.7H40.7v5.5h19.4l8.2-12.4 2.7.8v63.5zm19-61.9v13.4l4.4-7.6-4.4-5.8z"/>
    <path fill="#484F59" d="M77.2 59h3v39.6h-3z"/>
  </g>
</svg>
