<svg xmlns="http://www.w3.org/2000/svg" viewBox="0 0 96.2 96.2">
  <path fill="#fff" d="M33.2 66.5c-8.9 0-17.2-3.5-23.5-9.7C3.5 50.5 0 42.1 0 33.3S3.4 16.1 9.7 9.8C16 3.5 24.3 0 33.2 0s17.2 3.5 23.5 9.7c6.3 6.3 9.8 14.6 9.8 23.5 0 8.8-3.4 17.2-9.7 23.5-6.3 6.3-14.6 9.8-23.6 9.8.1 0 0 0 0 0zm0-63.5c-8.1 0-15.7 3.2-21.4 8.9C6.1 17.6 3 25.2 3 33.3c0 8.1 3.2 15.7 8.9 21.4 5.7 5.7 13.3 8.9 21.4 8.9 8.1 0 15.7-3.2 21.4-8.9 5.7-5.7 8.8-13.3 8.8-21.3 0-8.1-3.2-15.7-8.9-21.4-5.7-5.9-13.3-9-21.4-9 .1 0 0 0 0 0z"/>
  <path fill="#fff" d="M55.6 63.5l-4-4.1c-.3-.3-.5-.7-.4-1.1s.2-.8.6-1.1c1.1-.8 2.1-1.7 2.9-2.6.9-.9 1.7-1.8 2.5-2.9.3-.3.7-.6 1.1-.6.4 0 .9.1 1.2.5l4 4.1-2.2 2.1-2.8-2.9c-.6.6-1.1 1.3-1.7 1.8-.6.6-1.3 1.2-1.9 1.8l2.9 3-2.2 2z"/>
  <path fill="#fff" d="M83.3 94c-.4 0-.8-.2-1.1-.4L53.6 64.9c-.3-.3-.4-.7-.4-1.1s.2-.8.4-1.1l9.2-9.2c.6-.6 1.5-.6 2.1 0l28.6 28.6c.6.6.6 1.5 0 2.1l-9.2 9.2c-.2.4-.6.6-1 .6zM56.8 63.9l26.5 26.5 7-7-26.4-26.6-7.1 7.1z"/>
  <path fill="#fff" d="M58 68.7c-.4 0-.8-.1-1.1-.4L53.6 65c-.3-.3-.4-.7-.4-1.1s.2-.8.4-1.1l9.2-9.2c.6-.6 1.5-.6 2.1 0l3.3 3.3c.3.3.4.7.4 1.1s-.2.8-.4 1.1L59 68.3c-.2.2-.6.4-1 .4zm-1.2-4.8l1.2 1.2 7-7-1.2-1.2-7 7zM85.5 96.2c-.4 0-.8-.2-1.1-.4l-2.2-2.2c-.6-.6-.6-1.5 0-2.1l9.2-9.2c.3-.3.7-.4 1.1-.4.4 0 .8.2 1.1.4l2.2 2.2c.3.3.4.7.4 1.1 0 5.8-4.8 10.6-10.7 10.6zm-.1-3.7l.7.7c3.8-.3 6.8-3.3 7.1-7l-.7-.7-7.1 7z"/>
  <g>
    <path fill="#fff" d="M33.2 58.9c-6.8 0-13.3-2.7-18.1-7.5-4.9-4.8-7.5-11.3-7.5-18.1 0-6.8 2.7-13.3 7.5-18.1 4.8-4.9 11.3-7.6 18.2-7.6 6.8 0 13.3 2.7 18.1 7.5 4.8 4.8 7.5 11.3 7.5 18.1 0 6.8-2.7 13.2-7.5 18.1-4.8 4.9-11.3 7.6-18.2 7.6.1 0 0 0 0 0zm.1-48.3c-6.1 0-11.8 2.4-16 6.7-4.3 4.3-6.6 10-6.6 16s2.4 11.7 6.6 16c4.3 4.3 10 6.6 16 6.6 6.1 0 11.8-2.4 16.1-6.7 4.3-4.3 6.6-9.9 6.6-16 0-6-2.4-11.7-6.7-16-4.3-4.2-10-6.6-16-6.6z"/>
  </g>
  <g>
    <path fill="none" d="M50.3 16.2c-4.6-4.6-10.6-7.1-17.1-7.1-6.5 0-12.5 2.5-17.1 7.1-4.5 4.6-7.1 10.6-7.1 17 0 6.6 2.6 12.5 6.9 16.9v-7c0-2.4 1.9-5.1 4.3-5.9 8.2-2.4 16.9-2.4 25.1 0 2.4.7 4.2 3.5 4.3 5.9v7.8c.3-.2.5-.5.8-.7 4.5-4.6 7-10.6 7-17s-2.5-12.5-7.1-17zm-17.5 19c-4.7 0-8.5-3.8-8.5-8.5s3.8-8.5 8.5-8.5 8.5 3.8 8.5 8.5c0 4.6-3.8 8.5-8.5 8.5z"/>
  </g>
  <g>
    <path fill="#fff" d="M33.2 58.9c-2.8 0-5.4-.4-8-1.3v.1l-2.1-.9-.9-.4c-2.7-1.3-5.2-3.1-7.3-5.2l-.4-.4v-7.6c0-3.1 2.4-6.4 5.3-7.3 8.5-2.5 17.5-2.5 26 0 2.9.9 5.3 4.2 5.3 7.3v8.5l-.5.4c-2.2 2-4.6 3.6-7.2 4.7l-.9.4-2 .8v-.1c-2.4.7-4.8 1-7.3 1 .1 0 .1 0 0 0zm-8-4.5c2.6 1 5.3 1.5 8 1.5 2.4 0 4.8-.4 7.1-1.2V44.6h3v8.9c1.7-.8 3.3-1.9 4.7-3.2v-7.2c0-1.8-1.5-3.9-3.2-4.4-7.9-2.4-16.3-2.4-24.3 0-1.7.5-3.2 2.6-3.2 4.4v6.3c1.4 1.4 3 2.6 4.7 3.5v-8.4h3v9.9z"/>
  </g>
  <g>
    <path fill="#fff" d="M32.8 36.7c-5.5 0-10-4.5-10-10s4.5-10 10-10 10 4.5 10 10-4.5 10-10 10zm0-17.1c-3.9 0-7 3.2-7 7 0 3.9 3.2 7 7 7 3.9 0 7-3.2 7-7 0-3.9-3.1-7-7-7z"/>
  </g>
  <g>
    <path fill="#fff" d="M33.2 58.9c-6.8 0-13.3-2.7-18.1-7.5-4.9-4.8-7.5-11.3-7.5-18.1 0-6.8 2.7-13.3 7.5-18.1 4.8-4.9 11.3-7.6 18.2-7.6 6.8 0 13.3 2.7 18.1 7.5 4.8 4.8 7.5 11.3 7.5 18.1 0 6.8-2.7 13.2-7.5 18.1-4.8 4.9-11.3 7.6-18.2 7.6.1 0 0 0 0 0zm.1-48.3c-6.1 0-11.8 2.4-16 6.7-4.3 4.3-6.6 10-6.6 16s2.4 11.7 6.6 16c4.3 4.3 10 6.6 16 6.6 6.1 0 11.8-2.4 16.1-6.7 4.3-4.3 6.6-9.9 6.6-16 0-6-2.4-11.7-6.7-16-4.3-4.2-10-6.6-16-6.6z"/>
  </g>
</svg>
