<svg xmlns="http://www.w3.org/2000/svg" viewBox="0 0 68.7 71.7"><path fill="#fff" d="M1.7 71.7c-.4 0-.7-.1-1-.4-.5-.5-.6-1.2-.3-1.8l7.2-13.6C2.7 49.7 0 42.2 0 34.4 0 15.4 15.4 0 34.4 0s34.4 15.4 34.4 34.4-15.4 34.4-34.4 34.4c-6.7 0-13.2-1.9-18.8-5.6L2.5 71.4c-.3.2-.6.3-.8.3zM34.4 3C17.1 3 3 17.1 3 34.4c0 7.4 2.7 14.6 7.5 20.3.4.5.5 1.1.2 1.7l-5 9.5 9.2-5.8c.5-.3 1.2-.3 1.7 0 5.3 3.7 11.5 5.6 17.9 5.6 17.3 0 31.4-14.1 31.4-31.4C65.7 17.1 51.7 3 34.4 3z"/><path fill="#fff" d="M33.9 61C19.3 61 7.3 49 7.3 34.3s12-26.6 26.6-26.6 26.6 12 26.6 26.6C60.6 49 48.6 61 33.9 61zm0-50.3c-13 0-23.6 10.6-23.6 23.6 0 13 10.6 23.6 23.6 23.6s23.6-10.6 23.6-23.6c.1-13-10.5-23.6-23.6-23.6z"/><path fill="#fff" d="M33 39.5l-.1-1c-.2-2.1.5-4.4 2.4-6.7 1.8-2.1 2.7-3.6 2.7-5.3 0-2-1.2-3.3-3.7-3.4-1.4 0-3 .5-3.9 1.2l-.9-2.5c1.3-.9 3.5-1.6 5.6-1.6 4.5 0 6.5 2.8 6.5 5.7 0 2.7-1.5 4.6-3.4 6.8-1.7 2-2.3 3.7-2.2 5.7v1h-3zm-.9 5.5c0-1.4 1-2.5 2.3-2.5s2.3 1 2.3 2.5c0 1.4-.9 2.4-2.3 2.4s-2.3-1-2.3-2.4z"/></svg>