<?xml version="1.0" encoding="UTF-8"?><!DOCTYPE svg PUBLIC "-//W3C//DTD SVG 1.1//EN" "http://www.w3.org/Graphics/SVG/1.1/DTD/svg11.dtd"><svg xmlns="http://www.w3.org/2000/svg"><symbol id="icon-courses" viewBox="0 0 107.7 100.1">
  <path fill="#fff" d="M31.6 53.9c-.5 0-.9-.2-1.2-.6L12.7 29c-.2-.3-.3-.7-.3-1.1s.3-.7.6-1c5.7-4.1 11.6-6 18.6-6 .8 0 1.5.7 1.5 1.5v30.1c0 .6-.4 1.2-1 1.4h-.5zM16 28.4l14.1 19.4V23.9c-5.2.2-9.7 1.7-14.1 4.5z"/>
  <path fill="#fff" d="M31.6 84C14.2 84 0 69.8 0 52.4 0 42 4.6 33 13 26.9c.3-.2.7-.3 1.1-.3.4.1.7.3 1 .6l15 20.6V22.3h3v30.1c0 .6-.4 1.2-1 1.4-.6.2-1.3 0-1.7-.5L13.6 30.2C6.7 35.8 3 43.4 3 52.4 3 68.2 15.8 81 31.6 81s28.6-12.8 28.6-28.6h3C63.1 69.8 49 84 31.6 84z"/>
  <g>
    <path fill="#fff" d="M60.2 63.2c-.2 0-.3 0-.5-.1l-28.6-9.3c-.6-.2-1-.8-1-1.4V22.3c0-.8.7-1.5 1.5-1.5 3.5 0 6.5.5 9.8 1.5 7.1 2.3 13.1 7 17 13.3l-2.5 1.6c-3.5-5.7-9-10-15.4-12-2.5-.8-4.8-1.2-7.3-1.4v27.4l26.1 8.5c1.1-4.1 1.3-8.5.5-12.7l2.9-.6c1 5.2.6 10.6-1 15.6-.1.4-.4.7-.7.9-.4.3-.6.3-.8.3z"/>
  </g>
  <g>
    <path fill="none" d="M68.8 11.8c0 5.7 4.6 10.3 10.3 10.3 5.7 0 10.3-4.6 10.3-10.3 0-5.7-4.6-10.3-10.3-10.3-5.7 0-10.3 4.6-10.3 10.3z"/>
    <path fill="#fff" d="M79.1 23.6c-6.5 0-11.8-5.3-11.8-11.8C67.3 5.3 72.6 0 79.1 0 85.7 0 91 5.3 91 11.8c0 6.5-5.3 11.8-11.9 11.8zm0-20.6c-4.9 0-8.8 4-8.8 8.8 0 4.9 4 8.8 8.8 8.8 4.9 0 8.8-4 8.8-8.8C88 7 84 3 79.1 3z"/>
    <path fill="#fff" d="M88.6 100.1h-19l-1.5-1.5v-60l-5.9 8.9-1.2.7H39.2l-1.5-1.5v-8.5l1.5-1.5h16.4l10.2-15.2 1.2-.7h26.3l1.2.6 13.1 18.1.1 1.6-9.5 16.5-2 .6-6-3.5v43.9l-1.6 1.5zm-17.5-3h16.1V30.8l2.7-.9L97.5 40l.1 1.7-6 10.5 4.8 2.7 8.3-14.4-12.2-16.7H67.7L57.6 39l-1.2.7H40.7v5.5h19.4l8.2-12.4 2.7.8v63.5zm19-61.9v13.4l4.4-7.6-4.4-5.8z"/>
    <path fill="#fff" d="M77.2 59h3v39.6h-3z"/>
  </g>
</symbol><symbol id="icon-department" viewBox="0 0 101.5 99.5">
  <path fill="#fff" d="M49.5 44.1h3v13.7h-3z"/>
  <path fill="#fff" d="M38.89747 62.07272l10.9982-6.35127 1.5003 2.598-10.9982 6.35127z"/>
  <path fill="#fff" d="M50.6655 58.3218l1.5-2.598 10.9982 6.35-1.5 2.598zM50.8 46c-12.7 0-23-10.3-23-23s10.3-23 23-23 23 10.3 23 23-10.3 23-23 23zm0-43c-11 0-20 9-20 20s9 20 20 20 20-9 20-20-8.9-20-20-20z"/>
  <path fill="#fff" d="M66.9 38.6h-3v-6.7c0-1.5-1.3-3.4-2.7-3.8-7-2.1-14.4-2.1-21.5 0-1.4.4-2.7 2.2-2.7 3.8v5.9h-3v-5.9c0-2.9 2.2-5.8 4.8-6.7 7.6-2.3 15.6-2.3 23.2 0 2.7.8 4.9 3.8 4.9 6.7v6.7z"/>
  <path fill="#fff" d="M50.5 25.3c-4.5 0-8.1-3.6-8.1-8.1s3.6-8.1 8.1-8.1 8.1 3.6 8.1 8.1c0 4.4-3.7 8.1-8.1 8.1zm0-15.2c-3.9 0-7.1 3.2-7.1 7.1 0 3.9 3.2 7.1 7.1 7.1 3.9 0 7.1-3.2 7.1-7.1 0-3.9-3.2-7.1-7.1-7.1z"/>
  <path fill="#fff" d="M50.5 26.3c-5 0-9.1-4.1-9.1-9.1s4.1-9.1 9.1-9.1 9.1 4.1 9.1 9.1-4.1 9.1-9.1 9.1zm0-15.2c-3.4 0-6.1 2.7-6.1 6.1 0 3.4 2.7 6.1 6.1 6.1 3.4 0 6.1-2.7 6.1-6.1 0-3.4-2.8-6.1-6.1-6.1zM40.9 33.2h3v9.9h-3zM57.1 33.2h3v9.9h-3z"/>
  <g>
    <path fill="#fff" d="M23 99.5c-12.7 0-23-10.3-23-23s10.3-23 23-23 23 10.3 23 23-10.3 23-23 23zm0-43c-11 0-20 9-20 20s9 20 20 20 20-9 20-20-9-20-20-20z"/>
    <path fill="#fff" d="M39.1 92.1h-3v-6.7c0-1.5-1.3-3.4-2.7-3.8-7-2.1-14.4-2.1-21.5 0-1.4.4-2.7 2.2-2.7 3.8v5.9h-3v-5.9c0-2.9 2.2-5.8 4.8-6.7 7.6-2.3 15.6-2.3 23.2 0 2.7.8 4.9 3.8 4.9 6.7v6.7z"/>
    <path fill="#fff" d="M22.6 78.8c-4.5 0-8.1-3.6-8.1-8.1s3.6-8.1 8.1-8.1 8.1 3.6 8.1 8.1c0 4.4-3.6 8.1-8.1 8.1zm0-15.2c-3.9 0-7.1 3.2-7.1 7.1 0 3.9 3.2 7.1 7.1 7.1 3.9 0 7.1-3.2 7.1-7.1 0-3.9-3.2-7.1-7.1-7.1z"/>
    <path fill="#fff" d="M22.6 79.8c-5 0-9.1-4.1-9.1-9.1s4.1-9.1 9.1-9.1 9.1 4.1 9.1 9.1-4 9.1-9.1 9.1zm0-15.2c-3.4 0-6.1 2.7-6.1 6.1s2.7 6.1 6.1 6.1c3.4 0 6.1-2.7 6.1-6.1s-2.7-6.1-6.1-6.1zM13.1 86.7h3v9.9h-3zM29.2 86.7h3v9.9h-3z"/>
  </g>
  <g>
    <path fill="#fff" d="M78.5 99.5c-12.7 0-23-10.3-23-23s10.3-23 23-23 23 10.3 23 23-10.3 23-23 23zm0-43c-11 0-20 9-20 20s9 20 20 20 20-9 20-20-9-20-20-20z"/>
    <path fill="#fff" d="M94.6 92.1h-3v-6.7c0-1.5-1.3-3.4-2.7-3.8-7-2.1-14.4-2.1-21.5 0-1.4.4-2.7 2.2-2.7 3.8v5.9h-3v-5.9c0-2.9 2.2-5.8 4.8-6.7 7.6-2.3 15.6-2.3 23.2 0 2.7.8 4.9 3.8 4.9 6.7v6.7z"/>
    <path fill="#fff" d="M78.1 78.8c-4.5 0-8.1-3.6-8.1-8.1s3.6-8.1 8.1-8.1 8.1 3.6 8.1 8.1c0 4.4-3.6 8.1-8.1 8.1zm0-15.2c-3.9 0-7.1 3.2-7.1 7.1 0 3.9 3.2 7.1 7.1 7.1 3.9 0 7.1-3.2 7.1-7.1 0-3.9-3.2-7.1-7.1-7.1z"/>
    <path fill="#fff" d="M78.1 79.8c-5 0-9.1-4.1-9.1-9.1s4.1-9.1 9.1-9.1 9.1 4.1 9.1 9.1-4 9.1-9.1 9.1zm0-15.2c-3.4 0-6.1 2.7-6.1 6.1s2.7 6.1 6.1 6.1c3.4 0 6.1-2.7 6.1-6.1s-2.7-6.1-6.1-6.1zM68.6 86.7h3v9.9h-3zM84.7 86.7h3v9.9h-3z"/>
  </g>
</symbol><symbol id="icon-dont-found" viewBox="0 0 68.7 71.7">
  <path fill="#fff" d="M1.7 71.7c-.4 0-.7-.1-1-.4-.5-.5-.6-1.2-.3-1.8l7.2-13.6C2.7 49.7 0 42.2 0 34.4 0 15.4 15.4 0 34.4 0s34.4 15.4 34.4 34.4-15.4 34.4-34.4 34.4c-6.7 0-13.2-1.9-18.8-5.6L2.5 71.4c-.3.2-.6.3-.8.3zM34.4 3C17.1 3 3 17.1 3 34.4c0 7.4 2.7 14.6 7.5 20.3.4.5.5 1.1.2 1.7l-5 9.5 9.2-5.8c.5-.3 1.2-.3 1.7 0 5.3 3.7 11.5 5.6 17.9 5.6 17.3 0 31.4-14.1 31.4-31.4C65.7 17.1 51.7 3 34.4 3z"/>
  <path fill="#fff" d="M33.9 61C19.3 61 7.3 49 7.3 34.3s12-26.6 26.6-26.6 26.6 12 26.6 26.6C60.6 49 48.6 61 33.9 61zm0-50.3c-13 0-23.6 10.6-23.6 23.6 0 13 10.6 23.6 23.6 23.6s23.6-10.6 23.6-23.6c.1-13-10.5-23.6-23.6-23.6z"/>
  <path fill="#fff" d="M33 39.5l-.1-1c-.2-2.1.5-4.4 2.4-6.7 1.8-2.1 2.7-3.6 2.7-5.3 0-2-1.2-3.3-3.7-3.4-1.4 0-3 .5-3.9 1.2l-.9-2.5c1.3-.9 3.5-1.6 5.6-1.6 4.5 0 6.5 2.8 6.5 5.7 0 2.7-1.5 4.6-3.4 6.8-1.7 2-2.3 3.7-2.2 5.7v1h-3zm-.9 5.5c0-1.4 1-2.5 2.3-2.5s2.3 1 2.3 2.5c0 1.4-.9 2.4-2.3 2.4s-2.3-1-2.3-2.4z"/>
</symbol><symbol id="icon-logo-home" viewBox="0 0 123.1 58.1">
  <path fill="#FFF" d="M7.5 38.9v-6.5h5.8c.6 0 1-.5 1-1v-5.8c0-.6-.5-1-1-1H7.5c-.6 0-1 .5-1 1v17.3H0V25.5C0 21.4 3.4 18 7.5 18h5.8c4.1 0 7.5 3.4 7.5 7.5v5.8c0 4.2-3.4 7.5-7.5 7.5H7.5zM43.1 35.4c0 4.1-3.4 7.5-7.5 7.5h-5.9c-4.1 0-7.5-3.4-7.5-7.5v-9.8c0-4.1 3.4-7.5 7.5-7.5h5.9c4.1 0 7.5 3.4 7.5 7.5v9.8zm-6.5-9.8c0-.6-.5-1-1-1h-5.9c-.6 0-1 .5-1 1v9.8c0 .6.5 1 1 1h5.9c.6 0 1-.5 1-1v-9.8zM54.2 36.9h-2.1v-6.5h6c.6 0 1-.5 1-1v-3.9c0-.6-.5-1-1-1h-6c-.6 0-1.1.5-1.1 1v17.3h-6.5V25.5c0-4.1 3.4-7.5 7.6-7.5h5.8c4.1 0 7.7 3.4 7.7 7.5v3.9c0 2-.8 3.6-2.6 4.6 1.5.4 1.9 1.7 2.1 3l.9 5.8h-7l-1-5.3c-.1-.4-.4-.6-.9-.6h-2.9zM66.8 24.3V18h17.1v6.3h-5.3v18.6h-6.5V24.3zM98.5 18h-5.9c-4.1 0-7.5 3.4-7.5 7.5v17.3h6.5v-7.2h7.9v7.2h6.5V25.5c0-4.1-3.4-7.5-7.5-7.5m-6.9 11.2v-3.7c0-.6.5-1 1-1h5.9c.6 0 1 .5 1 1v3.7h-7.9zM113.9 18v17.3c0 .6.5 1 1 1h8.2v6.5h-8.2c-4.1 0-7.5-3.4-7.5-7.5V18h6.5z"/>
  <path fill="#C5A004" d="M34.8 56.8v-4.9h3v1h-1.9v1h1.8v1h-1.8v1.9zM40.9 55.3h-.6v1.5h-1.1v-4.9h2c1.2 0 1.6.5 1.6 1.4v.6c0 .6-.2 1-.7 1.2l1.2 1.7H42l-1.1-1.5zm.8-1.9c0-.4-.1-.5-.6-.5h-.9v1.4h.9c.5 0 .6-.2.6-.5v-.4zM48.5 56.8h-1.1l-.3-.9h-1.6l-.3.9h-1.1l1.5-4.9H47l1.5 4.9zm-2.8-1.9h1.1l-.6-2-.5 2zM50.7 53.6v3.2h-1v-4.9H51l1.6 3.4v-3.4h1v4.9h-1.3zM56.6 56.9c-1.1-.1-1.6-.8-1.6-1.5v-2c0-.7.5-1.5 1.9-1.5s1.9.8 1.9 1.5v2c0 .6-.3 1.1-1.1 1.4l.4.9-1 .4-.5-1.2zm1.1-3.4c0-.4-.2-.6-.8-.6-.5 0-.8.2-.8.6v1.8c0 .4.2.6.8.6.5 0 .8-.2.8-.6v-1.8zM63.9 51.9v3.4c0 .7-.5 1.5-1.8 1.5-1.4 0-1.8-.8-1.8-1.5v-3.4h1.1v3.3c0 .4.2.6.7.6.5 0 .7-.2.7-.6v-3.3h1.1zM65.4 56.8v-4.9h3v1h-2v.9h1.9v1h-1.9v1h2v1zM74 56.8h-1.1l-.3-.9H71l-.3.9h-1.1l1.5-4.9h1.5l1.4 4.9zm-2.8-1.9h1.1l-.6-2-.5 2zM77 56.8h-1.9v-4.9H77c1.2 0 1.6.6 1.6 1.3v2.3c0 .7-.4 1.3-1.6 1.3m.5-3.3c0-.4-.1-.6-.7-.6h-.7v2.9h.7c.5 0 .7-.2.7-.6v-1.7zM83.7 55.4c0 .7-.5 1.5-1.9 1.5s-1.9-.8-1.9-1.5v-2c0-.7.5-1.5 1.9-1.5s1.9.8 1.9 1.5v2zm-1.1-1.9c0-.4-.2-.6-.8-.6-.5 0-.8.2-.8.6v1.8c0 .4.2.6.8.6.5 0 .8-.2.8-.6v-1.8zM86.5 56.9c-.6 0-1.2-.1-1.6-.3l.2-.8c.4.1.9.2 1.4.2.6 0 .7-.1.7-.5s0-.5-.8-.7c-1.2-.3-1.3-.5-1.3-1.5s.3-1.4 1.7-1.4c.4 0 .9 0 1.5.2l-.2.9c-.6-.1-.9-.1-1.3-.1-.5 0-.6.1-.6.4 0 .5 0 .5.8.7 1.3.3 1.4.6 1.4 1.5-.1.9-.4 1.4-1.9 1.4M59 .1c-.8.3-1.2 1.3-.9 2.1.3.8 1.3 1.2 2.1.9.8-.3 1.2-1.2.9-2.1-.3-.6-.9-1-1.5-1-.2 0-.4 0-.6.1"/>
  <path fill="#A62721" d="M61.8 1c-.3.8.1 1.8.9 2.1.8.3 1.8-.1 2.1-.9.3-.8-.1-1.8-.9-2.1-.2-.1-.4-.1-.6-.1-.7 0-1.3.4-1.5 1M61.1 5.4L63 7.1c.2.2.3.3.3.5s-.2.4-.4.6l-1.1 1.2-1.8 1.8v2h3.1v-2l2.6-2.8c.3-.4.6-.8.6-1.2 0-.4-.2-.8-.7-1.2l-2.7-2.5-1.8 1.9z"/>
  <path fill="#C5A004" d="M61.5 3.5h-1.7l-2.6 2.8c-.3.4-.6.8-.6 1.2 0 .4.2.8.7 1.2l2.7 2.5 1.8-1.9L60 7.6c-.2-.2-.3-.3-.3-.5s.2-.4.4-.6l1.1-1.2L63 3.4h-1.5z"/>
  <path fill="#A62721" d="M71.5 6.7h24v1.4h-24z"/>
  <path fill="#C6A106" d="M26 6.7h24v1.4H26z"/>
</symbol><symbol id="icon-logo-icon" viewBox="0 0 16.4 22.3">
  <path fill="#C5A004" d="M4.1.2C2.7.8 2 2.4 2.5 3.8c.6 1.4 2.2 2.1 3.6 1.5 1.4-.6 2.1-2.2 1.5-3.6C7.2.7 6.2 0 5.1 0c-.3 0-.7.1-1 .2"/>
  <path fill="#A62721" d="M8.8 1.7c-.6 1.4.1 3 1.5 3.6 1.4.6 3-.1 3.6-1.5.6-1.4-.1-3-1.5-3.6-.4-.1-.7-.2-1-.2-1.1 0-2.2.7-2.6 1.7M7.7 9.1l3.1 2.8c.3.3.4.5.4.8 0 .4-.3.7-.6 1.1l-1.9 2-3 3.2v3.3H11V19l4.5-4.8c.6-.6.9-1.3.9-2 0-.6-.3-1.3-1.1-2L10.7 6l-3 3.1z"/>
  <path fill="#C5A004" d="M8.3 5.9H5.4L.9 10.7c-.5.6-.9 1.3-.9 2 0 .6.3 1.3 1.1 2L5.7 19l3-3.2-3-2.8c-.3-.3-.4-.5-.4-.8 0-.4.3-.7.6-1.1l1.8-2 3-3.2H8.3z"/>
</symbol><symbol id="icon-other-courses" viewBox="0 0 96.2 96.2">
  <path fill="#fff" d="M33.2 66.5c-8.9 0-17.2-3.5-23.5-9.7C3.5 50.5 0 42.1 0 33.3S3.4 16.1 9.7 9.8C16 3.5 24.3 0 33.2 0s17.2 3.5 23.5 9.7c6.3 6.3 9.8 14.6 9.8 23.5 0 8.8-3.4 17.2-9.7 23.5-6.3 6.3-14.6 9.8-23.6 9.8.1 0 0 0 0 0zm0-63.5c-8.1 0-15.7 3.2-21.4 8.9C6.1 17.6 3 25.2 3 33.3c0 8.1 3.2 15.7 8.9 21.4 5.7 5.7 13.3 8.9 21.4 8.9 8.1 0 15.7-3.2 21.4-8.9 5.7-5.7 8.8-13.3 8.8-21.3 0-8.1-3.2-15.7-8.9-21.4-5.7-5.9-13.3-9-21.4-9 .1 0 0 0 0 0z"/>
  <path fill="#fff" d="M55.6 63.5l-4-4.1c-.3-.3-.5-.7-.4-1.1s.2-.8.6-1.1c1.1-.8 2.1-1.7 2.9-2.6.9-.9 1.7-1.8 2.5-2.9.3-.3.7-.6 1.1-.6.4 0 .9.1 1.2.5l4 4.1-2.2 2.1-2.8-2.9c-.6.6-1.1 1.3-1.7 1.8-.6.6-1.3 1.2-1.9 1.8l2.9 3-2.2 2z"/>
  <path fill="#fff" d="M83.3 94c-.4 0-.8-.2-1.1-.4L53.6 64.9c-.3-.3-.4-.7-.4-1.1s.2-.8.4-1.1l9.2-9.2c.6-.6 1.5-.6 2.1 0l28.6 28.6c.6.6.6 1.5 0 2.1l-9.2 9.2c-.2.4-.6.6-1 .6zM56.8 63.9l26.5 26.5 7-7-26.4-26.6-7.1 7.1z"/>
  <path fill="#fff" d="M58 68.7c-.4 0-.8-.1-1.1-.4L53.6 65c-.3-.3-.4-.7-.4-1.1s.2-.8.4-1.1l9.2-9.2c.6-.6 1.5-.6 2.1 0l3.3 3.3c.3.3.4.7.4 1.1s-.2.8-.4 1.1L59 68.3c-.2.2-.6.4-1 .4zm-1.2-4.8l1.2 1.2 7-7-1.2-1.2-7 7zM85.5 96.2c-.4 0-.8-.2-1.1-.4l-2.2-2.2c-.6-.6-.6-1.5 0-2.1l9.2-9.2c.3-.3.7-.4 1.1-.4.4 0 .8.2 1.1.4l2.2 2.2c.3.3.4.7.4 1.1 0 5.8-4.8 10.6-10.7 10.6zm-.1-3.7l.7.7c3.8-.3 6.8-3.3 7.1-7l-.7-.7-7.1 7z"/>
  <g>
    <path fill="#fff" d="M33.2 58.9c-6.8 0-13.3-2.7-18.1-7.5-4.9-4.8-7.5-11.3-7.5-18.1 0-6.8 2.7-13.3 7.5-18.1 4.8-4.9 11.3-7.6 18.2-7.6 6.8 0 13.3 2.7 18.1 7.5 4.8 4.8 7.5 11.3 7.5 18.1 0 6.8-2.7 13.2-7.5 18.1-4.8 4.9-11.3 7.6-18.2 7.6.1 0 0 0 0 0zm.1-48.3c-6.1 0-11.8 2.4-16 6.7-4.3 4.3-6.6 10-6.6 16s2.4 11.7 6.6 16c4.3 4.3 10 6.6 16 6.6 6.1 0 11.8-2.4 16.1-6.7 4.3-4.3 6.6-9.9 6.6-16 0-6-2.4-11.7-6.7-16-4.3-4.2-10-6.6-16-6.6z"/>
  </g>
  <g>
    <path fill="none" d="M50.3 16.2c-4.6-4.6-10.6-7.1-17.1-7.1-6.5 0-12.5 2.5-17.1 7.1-4.5 4.6-7.1 10.6-7.1 17 0 6.6 2.6 12.5 6.9 16.9v-7c0-2.4 1.9-5.1 4.3-5.9 8.2-2.4 16.9-2.4 25.1 0 2.4.7 4.2 3.5 4.3 5.9v7.8c.3-.2.5-.5.8-.7 4.5-4.6 7-10.6 7-17s-2.5-12.5-7.1-17zm-17.5 19c-4.7 0-8.5-3.8-8.5-8.5s3.8-8.5 8.5-8.5 8.5 3.8 8.5 8.5c0 4.6-3.8 8.5-8.5 8.5z"/>
  </g>
  <g>
    <path fill="#fff" d="M33.2 58.9c-2.8 0-5.4-.4-8-1.3v.1l-2.1-.9-.9-.4c-2.7-1.3-5.2-3.1-7.3-5.2l-.4-.4v-7.6c0-3.1 2.4-6.4 5.3-7.3 8.5-2.5 17.5-2.5 26 0 2.9.9 5.3 4.2 5.3 7.3v8.5l-.5.4c-2.2 2-4.6 3.6-7.2 4.7l-.9.4-2 .8v-.1c-2.4.7-4.8 1-7.3 1 .1 0 .1 0 0 0zm-8-4.5c2.6 1 5.3 1.5 8 1.5 2.4 0 4.8-.4 7.1-1.2V44.6h3v8.9c1.7-.8 3.3-1.9 4.7-3.2v-7.2c0-1.8-1.5-3.9-3.2-4.4-7.9-2.4-16.3-2.4-24.3 0-1.7.5-3.2 2.6-3.2 4.4v6.3c1.4 1.4 3 2.6 4.7 3.5v-8.4h3v9.9z"/>
  </g>
  <g>
    <path fill="#fff" d="M32.8 36.7c-5.5 0-10-4.5-10-10s4.5-10 10-10 10 4.5 10 10-4.5 10-10 10zm0-17.1c-3.9 0-7 3.2-7 7 0 3.9 3.2 7 7 7 3.9 0 7-3.2 7-7 0-3.9-3.1-7-7-7z"/>
  </g>
  <g>
    <path fill="#fff" d="M33.2 58.9c-6.8 0-13.3-2.7-18.1-7.5-4.9-4.8-7.5-11.3-7.5-18.1 0-6.8 2.7-13.3 7.5-18.1 4.8-4.9 11.3-7.6 18.2-7.6 6.8 0 13.3 2.7 18.1 7.5 4.8 4.8 7.5 11.3 7.5 18.1 0 6.8-2.7 13.2-7.5 18.1-4.8 4.9-11.3 7.6-18.2 7.6.1 0 0 0 0 0zm.1-48.3c-6.1 0-11.8 2.4-16 6.7-4.3 4.3-6.6 10-6.6 16s2.4 11.7 6.6 16c4.3 4.3 10 6.6 16 6.6 6.1 0 11.8-2.4 16.1-6.7 4.3-4.3 6.6-9.9 6.6-16 0-6-2.4-11.7-6.7-16-4.3-4.2-10-6.6-16-6.6z"/>
  </g>
</symbol><symbol id="icon-speech" viewBox="0 0 99.9 93.3">
  <path fill="#fff" d="M12.5 5.6h3v9.1h-3zM94.8 5.6h3v49h-3z"/>
  <path fill="#fff" d="M99.9 61.5H26.5v-3h70.4v-2H26.5v-3h73.4zM99.9 8H10.4V0H100v8zM13.4 5H97V3H13.4v2z"/>
  <path fill="#fff" d="M53.7 60h3v12.3h-3zM36.74906 71.59232l7.30158-12.29514 2.5794 1.5318-7.30158 12.29514zM63.65317 60.78512l2.5791-1.5324 7.30444 12.29371-2.5791 1.5324zM54.7 50.7H38.9v-7.9h15.8v7.9zm-12.8-3h9.8v-1.9h-9.8v1.9zM73 50.7H57.2V28.5H73v22.2zm-12.8-3H70V31.5h-9.8v16.2zM91.2 50.7H75.4V15.4h15.8v35.3zm-12.8-3h9.8V18.4h-9.8v29.3z"/>
  <g>
    <path fill="#fff" d="M8.7 68.5H7.1c-2.8 0-7.1-2.3-7.1-5.7V37.5c0-3 2.3-6.2 5.1-7 5.7-1.7 18.6-1.8 18.7-1.8h25.3c3.4 0 5.6 4.2 5.7 7v2.7H25.1v-3h26.7c-.2-1.7-1.6-3.8-2.6-3.8H23.8c-2.4 0-13.2.3-17.8 1.7-1.6.5-3 2.5-3 4.2v25.3c0 1.2 2.3 2.6 4.1 2.7h1.6v3z"/>
    <path fill="none" d="M8.5 61.7H26v29H8.5zM25.7 22.2c0 4.5-3.7 8.2-8.2 8.2-4.5 0-8.2-3.7-8.2-8.2 0-4.5 3.7-8.2 8.2-8.2 4.6.1 8.2 3.7 8.2 8.2zM8.9 38.9v54M26.2 38.9v54M17.6 65.8v27.1"/>
    <path fill="#fff" d="M17.6 30.9c-5.3 0-9.7-4.3-9.7-9.7s4.3-9.7 9.7-9.7c5.3 0 9.7 4.3 9.7 9.7s-4.4 9.7-9.7 9.7zm0-16.3c-3.7 0-6.7 3-6.7 6.7s3 6.7 6.7 6.7 6.7-3 6.7-6.7c-.1-3.7-3.1-6.7-6.7-6.7zM27.7 93.3H7.4V38.9h3v51.4h14.3V35.7h3z"/>
    <g>
      <path fill="#fff" d="M16.1 65.8h3v27.1h-3z"/>
    </g>
  </g>
  <g>
    <path fill="#fff" d="M32.9 14.5h27.7v3H32.9z"/>
  </g>
  <g>
    <path fill="#fff" d="M32.9 21.2h27.7v3H32.9z"/>
  </g>
</symbol></svg>