<svg xmlns="http://www.w3.org/2000/svg" viewBox="0 0 16.4 22.3"><path fill="#C5A004" d="M4.1.2C2.7.8 2 2.4 2.5 3.8c.6 1.4 2.2 2.1 3.6 1.5 1.4-.6 2.1-2.2 1.5-3.6C7.2.7 6.2 0 5.1 0c-.3 0-.7.1-1 .2"/><path fill="#A62721" d="M8.8 1.7c-.6 1.4.1 3 1.5 3.6 1.4.6 3-.1 3.6-1.5.6-1.4-.1-3-1.5-3.6-.4-.1-.7-.2-1-.2-1.1 0-2.2.7-2.6 1.7M7.7 9.1l3.1 2.8c.3.3.4.5.4.8 0 .4-.3.7-.6 1.1l-1.9 2-3 3.2v3.3H11V19l4.5-4.8c.6-.6.9-1.3.9-2 0-.6-.3-1.3-1.1-2L10.7 6l-3 3.1z"/><path fill="#C5A004" d="M8.3 5.9H5.4L.9 10.7c-.5.6-.9 1.3-.9 2 0 .6.3 1.3 1.1 2L5.7 19l3-3.2-3-2.8c-.3-.3-.4-.5-.4-.8 0-.4.3-.7.6-1.1l1.8-2 3-3.2H8.3z"/></svg>