<svg xmlns="http://www.w3.org/2000/svg" viewBox="0 0 123.1 58.1"><path fill="#FFF" d="M7.5 38.9v-6.5h5.8c.6 0 1-.5 1-1v-5.8c0-.6-.5-1-1-1H7.5c-.6 0-1 .5-1 1v17.3H0V25.5C0 21.4 3.4 18 7.5 18h5.8c4.1 0 7.5 3.4 7.5 7.5v5.8c0 4.2-3.4 7.5-7.5 7.5H7.5zm35.6-3.5c0 4.1-3.4 7.5-7.5 7.5h-5.9c-4.1 0-7.5-3.4-7.5-7.5v-9.8c0-4.1 3.4-7.5 7.5-7.5h5.9c4.1 0 7.5 3.4 7.5 7.5v9.8zm-6.5-9.8c0-.6-.5-1-1-1h-5.9c-.6 0-1 .5-1 1v9.8c0 .6.5 1 1 1h5.9c.6 0 1-.5 1-1v-9.8zm17.6 11.3h-2.1v-6.5h6c.6 0 1-.5 1-1v-3.9c0-.6-.5-1-1-1h-6c-.6 0-1.1.5-1.1 1v17.3h-6.5V25.5c0-4.1 3.4-7.5 7.6-7.5h5.8c4.1 0 7.7 3.4 7.7 7.5v3.9c0 2-.8 3.6-2.6 4.6 1.5.4 1.9 1.7 2.1 3l.9 5.8h-7l-1-5.3c-.1-.4-.4-.6-.9-.6h-2.9zm12.6-12.6V18h17.1v6.3h-5.3v18.6h-6.5V24.3zM98.5 18h-5.9c-4.1 0-7.5 3.4-7.5 7.5v17.3h6.5v-7.2h7.9v7.2h6.5V25.5c0-4.1-3.4-7.5-7.5-7.5m-6.9 11.2v-3.7c0-.6.5-1 1-1h5.9c.6 0 1 .5 1 1v3.7h-7.9zM113.9 18v17.3c0 .6.5 1 1 1h8.2v6.5h-8.2c-4.1 0-7.5-3.4-7.5-7.5V18h6.5z"/><path fill="#C5A004" d="M34.8 56.8v-4.9h3v1h-1.9v1h1.8v1h-1.8v1.9zm6.1-1.5h-.6v1.5h-1.1v-4.9h2c1.2 0 1.6.5 1.6 1.4v.6c0 .6-.2 1-.7 1.2l1.2 1.7H42l-1.1-1.5zm.8-1.9c0-.4-.1-.5-.6-.5h-.9v1.4h.9c.5 0 .6-.2.6-.5v-.4zm6.8 3.4h-1.1l-.3-.9h-1.6l-.3.9h-1.1l1.5-4.9H47l1.5 4.9zm-2.8-1.9h1.1l-.6-2-.5 2zm5-1.3v3.2h-1v-4.9H51l1.6 3.4v-3.4h1v4.9h-1.3zm5.9 3.3c-1.1-.1-1.6-.8-1.6-1.5v-2c0-.7.5-1.5 1.9-1.5s1.9.8 1.9 1.5v2c0 .6-.3 1.1-1.1 1.4l.4.9-1 .4-.5-1.2zm1.1-3.4c0-.4-.2-.6-.8-.6-.5 0-.8.2-.8.6v1.8c0 .4.2.6.8.6.5 0 .8-.2.8-.6v-1.8zm6.2-1.6v3.4c0 .7-.5 1.5-1.8 1.5-1.4 0-1.8-.8-1.8-1.5v-3.4h1.1v3.3c0 .4.2.6.7.6.5 0 .7-.2.7-.6v-3.3h1.1zm1.5 4.9v-4.9h3v1h-2v.9h1.9v1h-1.9v1h2v1zm8.6 0h-1.1l-.3-.9H71l-.3.9h-1.1l1.5-4.9h1.5l1.4 4.9zm-2.8-1.9h1.1l-.6-2-.5 2zm5.8 1.9h-1.9v-4.9H77c1.2 0 1.6.6 1.6 1.3v2.3c0 .7-.4 1.3-1.6 1.3m.5-3.3c0-.4-.1-.6-.7-.6h-.7v2.9h.7c.5 0 .7-.2.7-.6v-1.7zm6.2 1.9c0 .7-.5 1.5-1.9 1.5s-1.9-.8-1.9-1.5v-2c0-.7.5-1.5 1.9-1.5s1.9.8 1.9 1.5v2zm-1.1-1.9c0-.4-.2-.6-.8-.6-.5 0-.8.2-.8.6v1.8c0 .4.2.6.8.6.5 0 .8-.2.8-.6v-1.8zm3.9 3.4c-.6 0-1.2-.1-1.6-.3l.2-.8c.4.1.9.2 1.4.2.6 0 .7-.1.7-.5s0-.5-.8-.7c-1.2-.3-1.3-.5-1.3-1.5s.3-1.4 1.7-1.4c.4 0 .9 0 1.5.2l-.2.9c-.6-.1-.9-.1-1.3-.1-.5 0-.6.1-.6.4 0 .5 0 .5.8.7 1.3.3 1.4.6 1.4 1.5-.1.9-.4 1.4-1.9 1.4M59 .1c-.8.3-1.2 1.3-.9 2.1.3.8 1.3 1.2 2.1.9.8-.3 1.2-1.2.9-2.1-.3-.6-.9-1-1.5-1-.2 0-.4 0-.6.1"/><path fill="#A62721" d="M61.8 1c-.3.8.1 1.8.9 2.1.8.3 1.8-.1 2.1-.9.3-.8-.1-1.8-.9-2.1-.2-.1-.4-.1-.6-.1-.7 0-1.3.4-1.5 1m-.7 4.4L63 7.1c.2.2.3.3.3.5s-.2.4-.4.6l-1.1 1.2-1.8 1.8v2h3.1v-2l2.6-2.8c.3-.4.6-.8.6-1.2 0-.4-.2-.8-.7-1.2l-2.7-2.5-1.8 1.9z"/><path fill="#C5A004" d="M61.5 3.5h-1.7l-2.6 2.8c-.3.4-.6.8-.6 1.2 0 .4.2.8.7 1.2l2.7 2.5 1.8-1.9L60 7.6c-.2-.2-.3-.3-.3-.5s.2-.4.4-.6l1.1-1.2L63 3.4h-1.5z"/><path fill="#A62721" d="M71.5 6.7h24v1.4h-24z"/><path fill="#C6A106" d="M26 6.7h24v1.4H26z"/></svg>