<svg xmlns="http://www.w3.org/2000/svg" viewBox="0 0 99.9 93.3"><path fill="#fff" d="M12.5 5.6h3v9.1h-3zm82.3 0h3v49h-3z"/><path fill="#fff" d="M99.9 61.5H26.5v-3h70.4v-2H26.5v-3h73.4zm0-53.5H10.4V0H100v8zM13.4 5H97V3H13.4v2z"/><path fill="#fff" d="M53.7 60h3v12.3h-3zM36.75 71.592l7.3-12.295 2.58 1.532-7.302 12.295zm26.903-10.807l2.58-1.532 7.304 12.293-2.58 1.533zM54.7 50.7H38.9v-7.9h15.8v7.9zm-12.8-3h9.8v-1.9h-9.8v1.9zm31.1 3H57.2V28.5H73v22.2zm-12.8-3H70V31.5h-9.8v16.2zm31 3H75.4V15.4h15.8v35.3zm-12.8-3h9.8V18.4h-9.8v29.3z"/><path fill="#fff" d="M8.7 68.5H7.1c-2.8 0-7.1-2.3-7.1-5.7V37.5c0-3 2.3-6.2 5.1-7 5.7-1.7 18.6-1.8 18.7-1.8h25.3c3.4 0 5.6 4.2 5.7 7v2.7H25.1v-3h26.7c-.2-1.7-1.6-3.8-2.6-3.8H23.8c-2.4 0-13.2.3-17.8 1.7-1.6.5-3 2.5-3 4.2v25.3c0 1.2 2.3 2.6 4.1 2.7h1.6v3z"/><path fill="none" d="M8.5 61.7H26v29H8.5zm17.2-39.5c0 4.5-3.7 8.2-8.2 8.2-4.5 0-8.2-3.7-8.2-8.2 0-4.5 3.7-8.2 8.2-8.2 4.6.1 8.2 3.7 8.2 8.2zM8.9 38.9v54m17.3-54v54m-8.6-27.1v27.1"/><path fill="#fff" d="M17.6 30.9c-5.3 0-9.7-4.3-9.7-9.7s4.3-9.7 9.7-9.7c5.3 0 9.7 4.3 9.7 9.7s-4.4 9.7-9.7 9.7zm0-16.3a6.7 6.7 0 1 0 6.7 6.7c-.1-3.7-3.1-6.7-6.7-6.7zm10.1 78.7H7.4V38.9h3v51.4h14.3V35.7h3z"/><path fill="#fff" d="M16.1 65.8h3v27.1h-3z"/><g><path fill="#fff" d="M32.9 14.5h27.7v3H32.9z"/></g><g><path fill="#fff" d="M32.9 21.2h27.7v3H32.9z"/></g></svg>